# xmcd
#
# Track frame offsets:
# 150
# 17086
# 40148
# 60906
# 82751
# 101059
# 120281
# 138888
# 153763
# 172256
# 190879
# 207556
#
# Disc length: 2942 seconds
#
#
# Revision: 0
# Processed by: cddbd v1.5.2PL0 Copyright (c) Steve Scherf et al.
# Submitted via: FreeRIP 2.951 
#
DISCID=920b7c0c
DTITLE=Bernardo - Tausend kleine Wunder
DYEAR=2007
DGENRE=Schlager
TTITLE0=Tausend Meilen will ich geh´n
TTITLE1=Romantische Nächte in Cafelú
TTITLE2=Ich will tanzen Tag ud Nacht
TTITLE3=Dann sah ich Deine blauen Augen
TTITLE4=Ich seh Dich nachts im Traum vor mir
TTITLE5=Du bist meine Zauberfee
TTITLE6=Tanz die ganze Nacht mit mir
TTITLE7=Baby Blue
TTITLE8=Tausend kleine Wunder
TTITLE9=Samba o-la-la
TTITLE10=All die Jahre mit dir
TTITLE11=Ein Tag in meinem Leben
EXTD=
EXTT0=
EXTT1=
EXTT2=
EXTT3=
EXTT4=
EXTT5=
EXTT6=
EXTT7=
EXTT8=
EXTT9=
EXTT10=
EXTT11=
PLAYORDER=
